<svg width="93" height="94" viewBox="0 0 93 94" fill="none" xmlns="http://www.w3.org/2000/svg">
<line x1="-147.707" y1="244.293" x2="193.293" y2="-96.7071" stroke="white" stroke-width="2"/>
<line x1="-137.707" y1="244.293" x2="203.293" y2="-96.7071" stroke="white" stroke-width="2"/>
<line x1="-127.707" y1="244.293" x2="213.293" y2="-96.7071" stroke="white" stroke-width="2"/>
<line x1="-117.707" y1="244.293" x2="223.293" y2="-96.7071" stroke="white" stroke-width="2"/>
<line x1="-107.707" y1="244.293" x2="233.293" y2="-96.7071" stroke="white" stroke-width="2"/>
<line x1="-97.7071" y1="244.293" x2="243.293" y2="-96.7071" stroke="white" stroke-width="2"/>
<line x1="-87.7071" y1="244.293" x2="253.293" y2="-96.7071" stroke="white" stroke-width="2"/>
<line x1="-77.7071" y1="244.293" x2="263.293" y2="-96.7071" stroke="white" stroke-width="2"/>
<line x1="-67.7071" y1="244.293" x2="273.293" y2="-96.7071" stroke="white" stroke-width="2"/>
<line x1="-57.7071" y1="244.293" x2="283.293" y2="-96.7071" stroke="white" stroke-width="2"/>
<line x1="-47.7071" y1="244.293" x2="293.293" y2="-96.7071" stroke="white" stroke-width="2"/>
<line x1="-37.7071" y1="244.293" x2="303.293" y2="-96.7071" stroke="white" stroke-width="2"/>
<line x1="-27.7071" y1="244.293" x2="313.293" y2="-96.7071" stroke="white" stroke-width="2"/>
<line x1="-17.7071" y1="244.293" x2="323.293" y2="-96.7071" stroke="white" stroke-width="2"/>
<line x1="-7.70711" y1="244.293" x2="333.293" y2="-96.7071" stroke="white" stroke-width="2"/>
<line x1="2.29289" y1="244.293" x2="343.293" y2="-96.7071" stroke="white" stroke-width="2"/>
<line x1="12.2929" y1="244.293" x2="353.293" y2="-96.7071" stroke="white" stroke-width="2"/>
<line x1="22.2929" y1="244.293" x2="363.293" y2="-96.7071" stroke="white" stroke-width="2"/>
<line x1="32.2929" y1="244.293" x2="373.293" y2="-96.7071" stroke="white" stroke-width="2"/>
<line x1="42.2929" y1="244.293" x2="383.293" y2="-96.7071" stroke="white" stroke-width="2"/>
<line x1="52.2929" y1="244.293" x2="393.293" y2="-96.7071" stroke="white" stroke-width="2"/>
<line x1="62.2929" y1="244.293" x2="403.293" y2="-96.7071" stroke="white" stroke-width="2"/>
<line x1="72.2929" y1="244.293" x2="413.293" y2="-96.7071" stroke="white" stroke-width="2"/>
<line x1="82.2929" y1="244.293" x2="423.293" y2="-96.7071" stroke="white" stroke-width="2"/>
<line x1="92.2929" y1="244.293" x2="433.293" y2="-96.7071" stroke="white" stroke-width="2"/>
</svg>
