<svg width="26" height="26" viewBox="0 0 26 26" fill="none" xmlns="http://www.w3.org/2000/svg">
<path d="M1.08 26C0.888 26 0.708 25.928 0.54 25.784C0.396 25.616 0.324 25.436 0.324 25.244C0.324 25.1 0.336 24.992 0.36 24.92L8.82 1.808C8.892 1.52 9.048 1.28 9.288 1.088C9.528 0.895998 9.84 0.799998 10.224 0.799998H15.552C15.936 0.799998 16.248 0.895998 16.488 1.088C16.728 1.28 16.884 1.52 16.956 1.808L25.38 24.92L25.452 25.244C25.452 25.436 25.368 25.616 25.2 25.784C25.056 25.928 24.876 26 24.66 26H20.232C19.656 26 19.272 25.748 19.08 25.244L17.676 21.572H8.064L6.696 25.244C6.504 25.748 6.108 26 5.508 26H1.08ZM16.236 16.388L12.888 6.884L9.54 16.388H16.236Z" fill="#FF9544"/>
</svg>
