<svg width="88" height="26" viewBox="0 0 88 26" fill="none" xmlns="http://www.w3.org/2000/svg">
<path d="M1.42 26C1.18 26 0.964 25.916 0.772 25.748C0.604 25.556 0.52 25.34 0.52 25.1V1.7C0.52 1.436 0.604 1.22 0.772 1.052C0.964 0.883999 1.18 0.799998 1.42 0.799998H5.308C5.884 0.799998 6.304 1.064 6.568 1.592L12.904 12.932L19.24 1.592C19.504 1.064 19.924 0.799998 20.5 0.799998H24.352C24.616 0.799998 24.832 0.883999 25 1.052C25.192 1.22 25.288 1.436 25.288 1.7V25.1C25.288 25.364 25.192 25.58 25 25.748C24.832 25.916 24.616 26 24.352 26H20.068C19.804 26 19.576 25.916 19.384 25.748C19.216 25.58 19.132 25.364 19.132 25.1V11.6L15.1 19.124C14.788 19.676 14.368 19.952 13.84 19.952H11.968C11.656 19.952 11.404 19.88 11.212 19.736C11.02 19.592 10.852 19.388 10.708 19.124L6.64 11.6V25.1C6.64 25.34 6.556 25.556 6.388 25.748C6.22 25.916 6.004 26 5.74 26H1.42ZM57.002 26C56.762 26 56.546 25.916 56.354 25.748C56.186 25.556 56.102 25.34 56.102 25.1V1.7C56.102 1.436 56.186 1.22 56.354 1.052C56.546 0.883999 56.762 0.799998 57.002 0.799998H66.362C69.89 0.799998 72.626 1.64 74.57 3.32C76.514 5 77.534 7.436 77.63 10.628C77.654 11.324 77.666 12.248 77.666 13.4C77.666 14.552 77.654 15.464 77.63 16.136C77.51 19.472 76.514 21.956 74.642 23.588C72.794 25.196 70.094 26 66.542 26H57.002ZM66.362 20.816C67.946 20.816 69.11 20.444 69.854 19.7C70.598 18.932 70.994 17.72 71.042 16.064C71.09 15.368 71.114 14.468 71.114 13.364C71.114 12.26 71.09 11.372 71.042 10.7C70.994 9.092 70.562 7.904 69.746 7.136C68.954 6.368 67.766 5.984 66.182 5.984H62.582V20.816H66.362Z" fill="#0D0A60"/>
<path d="M28.8925 26C28.7005 26 28.5205 25.928 28.3525 25.784C28.2085 25.616 28.1365 25.436 28.1365 25.244C28.1365 25.1 28.1485 24.992 28.1725 24.92L36.6325 1.808C36.7045 1.52 36.8605 1.28 37.1005 1.088C37.3405 0.895998 37.6525 0.799998 38.0365 0.799998H43.3645C43.7485 0.799998 44.0605 0.895998 44.3005 1.088C44.5405 1.28 44.6965 1.52 44.7685 1.808L53.1925 24.92L53.2645 25.244C53.2645 25.436 53.1805 25.616 53.0125 25.784C52.8685 25.928 52.6885 26 52.4725 26H48.0445C47.4685 26 47.0845 25.748 46.8925 25.244L45.4885 21.572H35.8765L34.5085 25.244C34.3165 25.748 33.9205 26 33.3205 26H28.8925ZM44.0485 16.388L40.7005 6.884L37.3525 16.388H44.0485ZM82.1956 26C81.9556 26 81.7396 25.916 81.5476 25.748C81.3796 25.556 81.2956 25.34 81.2956 25.1V20.528C81.2956 20.264 81.3796 20.048 81.5476 19.88C81.7396 19.712 81.9556 19.628 82.1956 19.628H86.7676C87.0316 19.628 87.2476 19.712 87.4156 19.88C87.5836 20.048 87.6676 20.264 87.6676 20.528V25.1C87.6676 25.34 87.5836 25.556 87.4156 25.748C87.2476 25.916 87.0316 26 86.7676 26H82.1956Z" fill="#FF9544"/>
</svg>
