<svg width="91" height="75" viewBox="0 0 91 75" fill="none" xmlns="http://www.w3.org/2000/svg">
<path d="M26.8379 61.6699C26.8379 59.1381 25.5305 56.8542 23.4449 55.2491L23.446 55.2369C23.6349 53.0856 23.788 50.8178 23.9042 48.4777C29.363 49.3252 33.231 51.0311 35.4207 53.5648C38.2442 56.8317 37.4922 60.6686 37.1945 61.7666C36.202 65.4274 38.8323 69.1359 43.2881 69.8414C45.8635 70.2491 48.4335 70.4527 50.9865 70.4527C59.9372 70.4527 68.9135 67.9314 76.3236 62.8871C85.6473 56.5399 90.9968 47.2869 90.9998 37.5007C91.0062 18.9526 71.433 3.82031 50.9925 4.42515C39.8246 4.75576 29.7879 9.29004 22.8678 14.2811C22.7793 13.6009 22.6867 12.9387 22.5899 12.2965C22.0823 8.92998 21.4826 6.26133 20.8075 4.3645C20.3429 3.05845 19.2545 0 16.1738 0C13.0932 0 12.0047 3.05845 11.5401 4.3645C10.8651 6.26133 10.2656 8.92998 9.7578 12.2965C8.7376 19.0619 8.17578 28.0126 8.17578 37.5C8.17578 43.6983 8.42674 49.8316 8.90165 55.2368L8.90271 55.2491C6.81718 56.8542 5.50977 59.1381 5.50977 61.6699V66.2109C5.50977 68.5931 2.98665 70.6055 0 70.6055V75H10.8418C19.6485 75 26.8379 68.9843 26.8379 61.6699V61.6699ZM51.1838 8.81689C68.362 8.30889 85.6735 21.2345 85.668 37.4994C85.6651 45.9708 81.0216 53.9892 72.9281 59.4989C64.9297 64.9437 54.4925 67.1402 44.2941 65.5258C42.8096 65.2909 42.0631 63.9608 42.3984 62.7249C42.9356 60.7427 43.7548 55.6333 39.7638 51.0152C36.6325 47.3919 31.3618 45.0504 24.0777 44.0398C24.1395 41.8875 24.1713 37.3362 24.1713 37.2542C25.2102 38.2519 26.5862 38.9701 28.1604 39.3177C32.4298 40.2606 36.8171 38.1595 37.9561 34.6566C39.0975 31.1457 36.5603 27.5241 32.3006 26.5834C29.1013 25.8769 25.9075 26.8721 24.01 28.8047C23.8914 25.6833 23.7089 22.6891 23.4672 19.8904C29.5 14.6373 39.6996 9.15688 51.1838 8.81689V8.81689ZM27.6555 32.3817C28.0369 31.2086 29.4972 30.5136 30.9206 30.8279C32.3405 31.1416 33.1864 32.3487 32.8059 33.519C32.4253 34.6894 30.9599 35.3864 29.5405 35.0728C28.1174 34.7585 27.2741 33.555 27.6555 32.3817V32.3817ZM14.7864 14.7132C15.2469 11.1765 15.7396 8.77925 16.1738 7.16572C16.608 8.77925 17.1007 11.1765 17.5612 14.7132C18.3857 21.0458 18.8398 29.1384 18.8398 37.5C18.8398 38.2339 18.8361 38.9666 18.829 39.6973H13.5187C13.5115 38.9666 13.5078 38.2339 13.5078 37.5C13.5078 29.1384 13.9619 21.0458 14.7864 14.7132V14.7132ZM13.6047 44.0903H18.743C18.6516 47.1933 18.4961 50.211 18.2802 53.0539C17.5989 52.9409 16.8947 52.8809 16.1738 52.8809C15.4529 52.8809 14.7488 52.9409 14.0675 53.0539C13.8517 50.211 13.6962 47.1935 13.6047 44.0903ZM10.8418 66.2109V61.6699C10.8418 59.2468 13.2337 57.2754 16.1738 57.2754C19.1139 57.2754 21.5059 59.2468 21.5059 61.6699C21.5059 66.5969 16.722 70.6055 10.8418 70.6055H9.37442C10.3317 69.2811 10.8418 67.7763 10.8418 66.2109Z" fill="#FF9544"/>
<path d="M71.5688 29.7313C74.6945 27.1554 74.6952 22.9856 71.5688 20.4091C68.4507 17.839 63.3763 17.8388 60.2578 20.4091C57.1322 22.985 57.1315 27.1548 60.2578 29.7313C63.3762 32.3014 68.4503 32.3015 71.5688 29.7313V29.7313ZM64.0281 23.5166C65.0677 22.6599 66.7588 22.6598 67.7985 23.5166C68.8406 24.3754 68.8406 25.7651 67.7985 26.6239C66.7586 27.4807 65.0677 27.4806 64.0281 26.6239C62.9862 25.7651 62.986 24.3753 64.0281 23.5166Z" fill="#FF9544"/>
<path d="M47.3819 26.8884C51.6416 25.9477 54.179 22.326 53.0375 18.8152C51.8958 15.3044 47.5015 13.2133 43.2419 14.1541C38.9821 15.0948 36.445 18.7165 37.5864 22.2274C38.7305 25.7462 43.1116 27.8313 47.3819 26.8884V26.8884ZM44.622 18.3987C46.0449 18.0845 47.5075 18.7849 47.8873 19.9523C48.2679 21.1226 47.422 22.3299 46.0021 22.6434C44.579 22.9576 43.1184 22.263 42.7369 21.0898C42.3562 19.9195 43.2019 18.7124 44.622 18.3987V18.3987Z" fill="#FF9544"/>
<path d="M48.6265 56.1852C49.7665 59.6909 54.1562 61.7884 58.4224 60.8462C62.6821 59.9055 65.2191 56.2838 64.0777 52.773C62.9336 49.2546 58.5534 47.1688 54.282 48.1119C50.0223 49.0526 47.4851 52.6743 48.6265 56.1852V56.1852ZM55.6623 52.3566C57.0881 52.0416 58.547 52.7395 58.9273 53.9102C59.3078 55.0806 58.4622 56.2878 57.0423 56.6014C55.6222 56.915 54.1576 56.2178 53.7771 55.0478C53.3966 53.8774 54.2422 52.6702 55.6623 52.3566Z" fill="#FF9544"/>
<path d="M63.7078 40.3434C62.5664 43.8543 65.1036 47.4759 69.3633 48.4167C73.6297 49.3589 78.0138 47.2774 79.1588 43.7556C80.3027 40.2367 77.7735 36.6253 73.5035 35.6824C69.2341 34.739 64.8523 36.8239 63.7078 40.3434ZM74.0084 42.6181C73.6275 43.7909 72.1667 44.4863 70.7434 44.1719C69.3235 43.8583 68.4779 42.6511 68.8584 41.4807C69.2387 40.3101 70.6972 39.6121 72.1234 39.9271C73.5431 40.2406 74.3889 41.4477 74.0084 42.6181Z" fill="#FF9544"/>
</svg>
